<svg width="608" height="608" viewBox="0 0 608 608" fill="none" xmlns="http://www.w3.org/2000/svg">

<path d="M455.172 455.877L304.002 607.043L152.836 455.877L304 304.709L455.172 455.877Z" fill="#E9DCDE" stroke="#787276"/>
<path id="text-path" d="M228 455.938C287.311 455.938 320.564 455.938 379.875 455.938" stroke="#787276"/>

<path d="M607.047 304L455.877 455.166L304.711 304L455.875 152.832L607.047 304Z" fill="#E9DCDE" stroke="#787276"/>
<path d="M380 303.938C439.311 303.938 472.564 303.938 531.875 303.938" stroke="#787276"/>

<path d="M303.297 304L152.127 455.166L0.961279 304L152.125 152.832L303.297 304Z" fill="#E9DCDE" stroke="#787276"/>
<path d="M76 303.937C135.311 303.937 168.564 303.937 227.875 303.937" stroke="#787276"/>

<path d="M455.172 152.129L304.002 303.295L152.836 152.129L304 0.961117L455.172 152.129Z" fill="#E9DCDE" stroke="#787276"/>
<path d="M228 151.938C287.311 151.938 320.564 151.938 379.875 151.938" stroke="#787276"/>

</svg>
