<svg width="758" height="758" viewBox="0 0 758 758" fill="none" xmlns="http://www.w3.org/2000/svg">
<path d="M757 379C757 430.218 746.814 479.056 728.356 523.6M757 379C757 327.894 746.674 278.972 728.105 234.319M757 379L379 1M757 379H523.684M379 757C327.747 757 278.877 746.8 234.308 728.318M379 757C430.217 757 479.056 746.814 523.599 728.356M379 757L1 379M379 757L379 379M1 379C1 327.712 11.2146 278.809 29.7205 234.216M1 379C1 430.228 11.1906 479.076 29.6551 523.627M1 379H379M379 1C430.424 1 479.267 11.0854 523.769 29.4975M379 1C327.711 1 278.809 11.2147 234.215 29.7207M379 1V379M234.308 728.318C188.108 709.16 146.531 681.103 111.714 646.286C76.8803 611.453 48.8138 569.853 29.6551 523.627M234.308 728.318L29.6551 523.627M234.308 728.318L379 379M234.308 728.318L234.242 234.246M523.769 29.4975C569.933 48.5973 611.426 76.6574 646.285 111.715C680.846 146.472 708.889 188.11 728.105 234.319M523.769 29.4975L728.105 234.319M523.769 29.4975L379 379M523.769 29.4975L523.684 379M728.356 523.6C709.197 569.837 681.127 611.446 646.286 646.286C611.446 681.127 569.836 709.197 523.599 728.356M728.356 523.6L379 379M728.356 523.6L523.649 523.608M728.356 523.6L523.684 379M29.7205 234.216C48.8774 188.053 76.9193 146.508 111.713 111.715C146.506 76.9206 188.052 48.878 234.215 29.7207M29.7205 234.216L276.66 481.286L523.599 728.356M29.7205 234.216L234.242 234.246M728.105 234.319L379 379M728.105 234.319L234.242 234.246M29.6551 523.627L379 379M29.6551 523.627L523.649 523.608M234.215 29.7207L234.242 234.246M523.599 728.356L379 379M523.599 728.356L523.649 523.608M379 379L523.649 523.608M379 379L234.242 234.246M379 379L523.684 379M523.649 523.608L523.684 379" stroke="#E9DCDE" stroke-width="0.5"/>
<path d="M530.172 530.877L379.002 682.043L227.836 530.877L379 379.709L530.172 530.877Z" fill="#E9DCDE" stroke="#787276"/>
<path d="M303 530.937H378.937H454.875" stroke="#787276"/>
<path d="M682.047 379L530.877 530.166L379.711 379L530.875 227.832L682.047 379Z" fill="#E9DCDE" stroke="#787276"/>
<path d="M451 378.937H526.938H602.875" stroke="#787276"/>
<path d="M378.297 379L227.127 530.166L75.9613 379L227.125 227.832L378.297 379Z" fill="#E9DCDE" stroke="#787276"/>
<path d="M151 378.937H226.937H302.875" stroke="#787276"/>
<path d="M530.172 227.129L379.002 378.295L227.836 227.129L379 75.9611L530.172 227.129Z" fill="#E9DCDE" stroke="#787276"/>
<path d="M303 226.938H378.937H454.875" stroke="#787276"/>
</svg>
