<svg viewBox="0 0 595 758" fill="none" xmlns="http://www.w3.org/2000/svg">
<path d="M427 541H379V757H427V541Z" fill="#E9DCDE"/>
<path d="M511 541H463V649H511V541Z" fill="#E9DCDE"/>
<path d="M595 541H547V757H595V541Z" fill="#E9DCDE"/>
<path d="M427 319V439H595V487H379V271H595V319H427Z" fill="#E9DCDE"/>
<path d="M595 1V217H547V49H427V217H379V1H595Z" fill="#E9DCDE"/>
<path d="M511 109H463V157H511V109Z" fill="#E9DCDE"/>
<path d="M218 379C218 357.019 222.351 336.061 230.233 316.95C230.776 315.633 231.336 314.324 231.912 313.025M218 379C218 400.955 222.34 421.89 230.205 440.983C230.757 442.323 231.326 443.654 231.912 444.975M218 379H1M1 379L379 1V109M1 379L379 757V649M1 379L262.911 266.752M1 379L231.912 444.975M1 379L262.911 491.248M1 379L231.912 313.025M1 379L127.632 288.549M1 379L127.89 469.636M262.911 266.752C263.652 265.977 264.4 265.209 265.155 264.449C279.975 249.537 297.67 237.519 317.332 229.309C336.326 221.378 357.155 217 379 217V109M262.911 266.752C250.095 280.169 239.554 295.803 231.912 313.025M321.892 287.316L379 271M321.892 287.316C291.333 306.392 271 340.321 271 379M321.892 287.316C338.459 276.975 358.032 271 379 271M379 271V379M271 379C271 417.679 291.333 451.608 321.892 470.684M271 379H379M321.892 470.684L379 487M321.892 470.684C338.459 481.025 358.032 487 379 487M379 487V379M231.912 444.975C239.554 462.197 250.095 477.831 262.911 491.248M262.911 491.248C263.652 492.023 264.4 492.791 265.156 493.551C279.985 508.473 297.694 520.497 317.372 528.708C336.355 536.628 357.17 541 379 541V649M378.734 645.468C342.567 645.468 308.082 638.27 276.633 625.228C244.032 611.71 214.693 591.912 190.125 567.343C165.545 542.763 145.74 513.408 132.22 480.789C130.696 477.112 129.252 473.394 127.89 469.636M378.734 112C342.542 112 308.034 119.208 276.567 132.267C243.992 145.785 214.676 165.573 190.124 190.125C165.572 214.677 145.784 243.993 132.266 276.567C130.629 280.514 129.083 284.509 127.632 288.549M379 649L127.89 469.636M379 109L127.632 288.549M127.632 288.549C117.513 316.718 112 347.082 112 378.734C112 410.655 117.607 441.266 127.89 469.636" stroke="#787276" stroke-width="0.5"/>
</svg>
